<svg xmlns="http://www.w3.org/2000/svg" xmlns:xlink="http://www.w3.org/1999/xlink" width="512" height="227.261" xmlns:v="https://vecta.io/nano"><style><![CDATA[.B{clip-path:url(#B)}]]></style><defs><path id="A" d="M10.744 10.238h489.193V219.76H10.744z"/></defs><clipPath id="B"><use xlink:href="#A"/></clipPath><path d="M24.618 212.612c-1.176.525-3.063.994-5.418.994-5.271 0-8.458-3.317-8.458-8.649 0-3.93 1.573-7.678 4.457-10.058 2.139-1.831 4.799-2.814 7.866-2.814 2.332 0 3.966.586 4.52 1.021l-.831 2.069c-.786-.463-2.254-.861-4.118-.861-2.177 0-4.374.834-5.98 2.357-1.945 1.81-3.185 4.758-3.185 7.927 0 3.741 1.703 6.811 6.342 6.811 1.587 0 3.314-.309 4.465-.899l.34 2.102zm14.037-12.391c-.373-.089-.93-.215-1.799-.215-3.87 0-7.029 4.063-7.055 8.213 0 1.673.585 3.313 2.564 3.313 2.142 0 4.678-2.788 5.429-6.784l.861-4.527zm-1.67 13.065c0-.895.154-2.313.339-3.864h-.061c-1.645 3.097-3.687 4.212-5.826 4.212-2.627 0-4.303-2.103-4.303-4.951 0-5.205 3.845-10.72 10.372-10.72 1.43 0 3 .255 4.024.591l-1.516 7.8c-.497 2.605-.709 5.271-.646 6.933h-2.383zm6.223 0l1.835-9.653.778-5.327h2.258l-.403 3.251h.088c.96-2.042 2.575-3.594 4.582-3.594.22 0 .533.034.718.067l-.498 2.538a3.56 3.56 0 0 0-.682-.056c-2.227 0-4.208 2.688-4.854 6.183l-1.245 6.591h-2.577zm13.207-19.159c0-.993.768-1.738 1.7-1.738s1.523.68 1.523 1.611c-.033 1.021-.745 1.739-1.741 1.739-.889 0-1.482-.684-1.482-1.612m-3.343 19.159l2.878-14.98h2.572l-2.881 14.98h-2.569zm7.093 0l2.012-10.608.718-4.372h2.291l-.373 2.937h.067c1.327-2.098 3.339-3.279 5.536-3.279 1.791 0 3.809 1.027 3.809 4.179 0 .657-.122 1.612-.279 2.418l-1.673 8.727h-2.566l1.637-8.628c.122-.59.218-1.302.218-1.921 0-1.517-.591-2.633-2.349-2.633-1.83 0-4.432 2.197-5.114 5.912l-1.366 7.27h-2.568zm28.189-12.75c-.461-.222-1.396-.497-2.479-.497-3.742 0-6.317 3.902-6.35 7.617 0 1.639.59 3.593 2.89 3.593 2.191 0 4.432-2.786 4.981-5.729l.958-4.984zm-11.486 16.162c.903.557 2.385.993 3.955.993 2.517 0 4.496-1.304 5.393-5.354l.511-2.237h-.1c-1.308 2.143-3.135 3.186-5.2 3.186-3.011 0-4.56-2.533-4.56-5.193-.033-5.079 3.715-10.13 9.511-10.13a12.16 12.16 0 0 1 4.791 1.055l-2.286 12.392c-.615 3.158-1.46 5.354-3.038 6.685-1.482 1.297-3.494 1.667-5.233 1.667-1.83 0-3.533-.425-4.496-1.055l.752-2.009zm47.246-4.08c-1.178.52-3.063.988-5.415.988-5.274 0-8.459-3.317-8.459-8.645 0-3.935 1.573-7.678 4.455-10.063 2.136-1.831 4.805-2.814 7.871-2.814 2.327 0 3.963.586 4.515 1.021l-.828 2.069c-.784-.463-2.254-.861-4.12-.861-2.178 0-4.372.834-5.975 2.353-1.952 1.827-3.188 4.773-3.188 7.932 0 3.736 1.7 6.811 6.342 6.811 1.581 0 3.317-.309 4.463-.899l.339 2.108zm5.338-5.238c0 2.446 1.322 4.223 3.533 4.223 3.033 0 5.318-3.913 5.318-7.408 0-1.737-.806-4.184-3.5-4.184-3.218 0-5.384 3.93-5.351 7.369m11.489-3.157c0 4.614-3.281 9.411-8.304 9.411-3.742 0-5.851-2.787-5.851-6.16 0-4.923 3.439-9.499 8.296-9.499 4.057 0 5.859 3.052 5.859 6.248m1.808 9.068l2.003-10.613.687-4.36h2.255l-.397 2.81h.086c1.405-2.076 3.292-3.152 5.274-3.152 2.285 0 3.367 1.451 3.497 3.334 1.333-2.164 3.246-3.307 5.514-3.334 1.728 0 3.621 1.104 3.621 3.93a15.78 15.78 0 0 1-.248 2.539l-1.667 8.848h-2.52l1.62-8.638c.119-.558.216-1.329.216-1.943 0-1.583-.591-2.605-2.263-2.605-1.857 0-4.057 2.165-4.678 5.515l-1.455 7.672h-2.479l1.676-8.786c.129-.657.185-1.242.185-1.827 0-1.264-.343-2.573-2.225-2.573-1.894 0-4.212 2.474-4.806 5.67l-1.39 7.517h-2.506zm27.916-2.505c.649.535 1.642.839 2.845.839 3.31 0 6.102-4.123 6.102-8.054 0-1.578-.707-3.467-2.89-3.467-2.003 0-4.54 2.318-5.312 6.503l-.745 4.179zm-4.217 8.644l2.995-15.797c.32-1.795.632-3.81.85-5.315h2.354l-.433 2.81h.061c1.358-1.954 3.345-3.152 5.387-3.152 3.256 0 4.606 2.661 4.606 5.415 0 5.261-3.77 10.244-8.757 10.244-1.611 0-2.663-.343-3.259-.679h-.05l-1.214 6.475h-2.54zm29.207-19.209c-.369-.089-.921-.21-1.788-.21-3.872 0-7.038 4.052-7.065 8.208 0 1.673.59 3.313 2.569 3.313 2.142 0 4.675-2.788 5.426-6.784l.858-4.527zm-1.669 13.07c0-.899.152-2.318.34-3.863h-.061c-1.637 3.091-3.685 4.206-5.815 4.206-2.633 0-4.313-2.103-4.313-4.945 0-5.211 3.844-10.714 10.38-10.714 1.421 0 3.008.243 4.024.579l-1.518 7.806c-.492 2.6-.712 5.266-.646 6.932h-2.391zm6.359-2.593c.707.43 2.018.927 3.215.927 1.75 0 2.854-1.115 2.854-2.445 0-1.176-.53-1.889-2.073-2.754-1.733-.966-2.694-2.297-2.694-3.814 0-2.633 2.255-4.637 5.417-4.637 1.358 0 2.569.364 3.13.739l-.712 1.954c-.53-.314-1.496-.689-2.605-.689-1.546 0-2.664.96-2.664 2.263 0 1.083.712 1.767 2.051 2.506 1.672.961 2.804 2.257 2.804 3.941 0 3.158-2.558 4.918-5.721 4.918-1.606 0-3.03-.496-3.714-1.021l.712-1.888zm11.561 0c.712.43 2.009.927 3.218.927 1.733 0 2.851-1.115 2.851-2.445 0-1.176-.53-1.889-2.083-2.754-1.728-.966-2.685-2.297-2.685-3.814 0-2.633 2.254-4.637 5.412-4.637 1.366 0 2.572.364 3.126.739l-.709 1.954c-.521-.314-1.479-.689-2.603-.689-1.543 0-2.663.96-2.663 2.263 0 1.083.72 1.767 2.047 2.506 1.67.961 2.818 2.257 2.818 3.941 0 3.158-2.569 4.918-5.729 4.918-1.606 0-3.036-.496-3.712-1.021l.712-1.888zm14.771-16.577c0-.987.778-1.732 1.706-1.732s1.523.68 1.523 1.617c-.036 1.016-.748 1.733-1.741 1.733-.895 0-1.488-.684-1.488-1.618m-3.345 19.17l2.881-14.974h2.569l-2.881 14.974h-2.569zm9.98-5.911c0 2.446 1.33 4.223 3.527 4.223 3.033 0 5.329-3.913 5.329-7.408 0-1.737-.806-4.184-3.497-4.184-3.234 0-5.393 3.93-5.359 7.369m11.495-3.157c0 4.614-3.293 9.411-8.302 9.411-3.754 0-5.857-2.787-5.857-6.16 0-4.923 3.434-9.499 8.296-9.499 4.057 0 5.863 3.052 5.863 6.248m1.797 9.068l2.009-10.613.72-4.36h2.288l-.375 2.936h.069c1.324-2.108 3.342-3.278 5.539-3.278 1.797 0 3.809 1.016 3.809 4.167 0 .657-.127 1.623-.276 2.423l-1.665 8.727h-2.571l1.637-8.638c.124-.591.209-1.303.209-1.921 0-1.518-.576-2.628-2.342-2.628-1.833 0-4.43 2.187-5.12 5.912l-1.353 7.274h-2.578zm28.156-13.07a7.13 7.13 0 0 0-1.797-.21c-3.87 0-7.021 4.052-7.063 8.208 0 1.673.59 3.313 2.574 3.313 2.137 0 4.673-2.788 5.415-6.784l.871-4.527zm-1.67 13.07c0-.899.157-2.318.331-3.863h-.044c-1.648 3.091-3.688 4.206-5.829 4.206-2.63 0-4.308-2.103-4.308-4.945 0-5.211 3.844-10.714 10.377-10.714 1.427 0 3.01.243 4.021.579l-1.513 7.806c-.499 2.6-.711 5.266-.643 6.932h-2.392zm12.952-19.015l-.775 4.035h3.59l-.397 2.003h-3.591l-1.394 7.287c-.159.827-.281 1.605-.281 2.412 0 .899.436 1.429 1.424 1.429.434 0 .87-.033 1.212-.094l-.127 2.015c-.458.183-1.242.271-1.976.271-2.3 0-3.163-1.385-3.163-2.903 0-.872.091-1.733.309-2.826l1.479-7.59h-2.155l.389-2.003h2.146l.656-3.378 2.654-.658zm10.81 5.703c-2.442 0-4.269 2.385-4.888 4.735 4.026.033 7.19-.491 7.19-2.81 0-1.241-.935-1.925-2.302-1.925m2.854 12.453c-1.115.65-2.939 1.175-4.957 1.175-3.955 0-5.699-2.693-5.699-6.005 0-4.526 3.348-9.627 8.187-9.627 2.837 0 4.388 1.7 4.388 3.831 0 3.941-4.435 4.983-9.975 4.896-.121.651-.021 2.047.314 2.854.591 1.324 1.797 2.01 3.348 2.01 1.764 0 3.095-.558 4.024-1.055l.37 1.921zm34.859.18c-1.179.525-3.059.983-5.411.983-5.272 0-8.46-3.307-8.46-8.639 0-3.93 1.576-7.678 4.455-10.063 2.136-1.826 4.802-2.81 7.868-2.81 2.332 0 3.969.586 4.521 1.021l-.833 2.069c-.776-.463-2.259-.861-4.115-.861-2.178 0-4.377.834-5.971 2.357-1.959 1.81-3.195 4.758-3.195 7.927 0 3.736 1.698 6.806 6.339 6.806 1.587 0 3.318-.309 4.464-.895l.338 2.105zm5.336-5.232c0 2.451 1.332 4.218 3.531 4.218 3.037 0 5.33-3.914 5.33-7.408 0-1.732-.809-4.179-3.503-4.179-3.216 0-5.392 3.93-5.358 7.369m11.495-3.157c0 4.614-3.275 9.411-8.304 9.411-3.743 0-5.849-2.787-5.849-6.16 0-4.923 3.436-9.511 8.29-9.511 4.063 0 5.863 3.064 5.863 6.26m1.801 9.063l2.007-10.614.689-4.366h2.259l-.398 2.815h.088c1.399-2.07 3.282-3.158 5.264-3.158 2.291 0 3.373 1.458 3.503 3.341 1.327-2.159 3.242-3.307 5.511-3.341 1.73 0 3.621 1.116 3.621 3.937 0 .706-.094 1.699-.248 2.539l-1.673 8.848h-2.512l1.618-8.633c.129-.558.217-1.336.217-1.948 0-1.584-.59-2.601-2.268-2.601-1.854 0-4.049 2.165-4.67 5.504l-1.463 7.678h-2.479l1.676-8.781a8.73 8.73 0 0 0 .189-1.833c0-1.27-.347-2.567-2.227-2.567-1.896 0-4.212 2.474-4.805 5.664l-1.389 7.518h-2.51zm27.917-2.505c.653.534 1.64.844 2.846.844 3.312 0 6.102-4.123 6.102-8.054 0-1.584-.707-3.472-2.879-3.472-2.009 0-4.552 2.323-5.315 6.508l-.754 4.174zm-4.212 8.644l3-15.792c.314-1.8.627-3.81.836-5.327h2.356l-.428 2.815h.062c1.357-1.948 3.337-3.152 5.385-3.152 3.242 0 4.609 2.661 4.609 5.415 0 5.277-3.771 10.25-8.763 10.25-1.607 0-2.664-.348-3.246-.684h-.067l-1.206 6.475h-2.538zm25.648-19.452c-2.448 0-4.27 2.391-4.891 4.741 4.024.033 7.189-.491 7.189-2.814.001-1.243-.927-1.927-2.298-1.927m2.853 12.452c-1.112.657-2.941 1.171-4.96 1.171-3.958 0-5.696-2.688-5.696-5.994 0-4.526 3.342-9.639 8.178-9.639 2.843 0 4.395 1.706 4.395 3.843 0 3.935-4.424 4.979-9.973 4.896-.115.646-.023 2.042.313 2.843.588 1.335 1.797 2.021 3.348 2.021 1.766 0 3.091-.563 4.026-1.06l.369 1.919zm3.229.861l2.01-10.614.718-4.366h2.283l-.363 2.937h.059c1.333-2.098 3.349-3.279 5.539-3.279 1.795 0 3.817 1.027 3.817 4.179 0 .646-.127 1.612-.282 2.418l-1.666 8.727h-2.578l1.643-8.633c.126-.591.22-1.297.22-1.916 0-1.517-.59-2.633-2.361-2.633-1.825 0-4.422 2.197-5.109 5.912l-1.353 7.27h-2.577zm16.673-2.594c.706.436 2.006.933 3.213.933 1.738 0 2.851-1.115 2.851-2.445 0-1.176-.524-1.889-2.069-2.766-1.731-.96-2.705-2.29-2.705-3.809 0-2.633 2.271-4.637 5.426-4.637 1.369 0 2.572.37 3.13.74l-.718 1.954c-.521-.31-1.485-.69-2.6-.69-1.551 0-2.654.966-2.654 2.269 0 1.083.706 1.767 2.039 2.506 1.67.949 2.814 2.257 2.814 3.936 0 3.164-2.563 4.913-5.727 4.913-1.611 0-3.032-.485-3.717-1.011l.717-1.893zm23.042-10.471c-.372-.089-.927-.21-1.794-.21-3.88 0-7.029 4.052-7.06 8.208 0 1.667.58 3.313 2.564 3.313 2.134 0 4.675-2.783 5.415-6.784l.875-4.527zm-1.669 13.065c0-.895.151-2.313.34-3.864h-.063c-1.646 3.097-3.686 4.212-5.827 4.212-2.627 0-4.3-2.103-4.3-4.951 0-5.205 3.84-10.72 10.372-10.72 1.427 0 3.011.255 4.026.591l-1.509 7.8c-.509 2.605-.727 5.271-.663 6.933h-2.376zm12.948-19.005l-.78 4.024h3.59l-.386 2.009h-3.596l-1.402 7.287c-.154.833-.276 1.605-.276 2.418 0 .894.441 1.417 1.419 1.417a7.1 7.1 0 0 0 1.215-.094l-.122 2.016c-.467.188-1.247.275-1.99.275-2.279 0-3.154-1.391-3.154-2.914 0-.866.094-1.723.31-2.815l1.49-7.59h-2.172l.402-2.009h2.142l.646-3.372 2.664-.652zm6.321-.154c0-.999.774-1.738 1.699-1.738.934 0 1.523.68 1.523 1.611-.021 1.021-.742 1.728-1.738 1.728-.891 0-1.484-.673-1.484-1.601m-3.343 19.159l2.879-14.98h2.574l-2.881 14.98h-2.572zm9.975-5.906c0 2.451 1.329 4.218 3.53 4.218 3.044 0 5.326-3.914 5.326-7.408 0-1.732-.804-4.179-3.5-4.179-3.217 0-5.378 3.93-5.356 7.369m11.491-3.157c0 4.614-3.281 9.411-8.299 9.411-3.748 0-5.855-2.787-5.855-6.16 0-4.923 3.436-9.511 8.307-9.511 4.05 0 5.847 3.064 5.847 6.26m1.809 9.063l2.009-10.614.718-4.366h2.282l-.367 2.937h.061c1.331-2.098 3.343-3.279 5.536-3.279 1.808 0 3.82 1.027 3.82 4.179 0 .646-.135 1.612-.287 2.418l-1.661 8.727h-2.578l1.646-8.633c.124-.591.218-1.297.218-1.916 0-1.517-.596-2.633-2.354-2.633-1.836 0-4.427 2.197-5.113 5.912l-1.358 7.27h-2.572zM100.12 192.085h1.179v24.866h-1.179zm210.448 0h1.179v24.866h-1.179z" class="B" fill="#79a0b3"/><path fill="#03c1e9" d="M395.451 106.224l26.105-74.014 24.928 74.014h-51.033zM86.224 75.658c-.968 5.062-2.39 9.455-4.255 13.198-1.876 3.742-4.129 6.651-6.764 8.732s-5.686 3.124-9.149 3.124H43.808v-82.76h22.247c3.463 0 6.51 1.035 9.149 3.119s4.888 4.99 6.764 8.735c1.866 3.742 3.287 8.145 4.255 13.198.972 5.064 1.455 10.507 1.455 16.327s-.482 11.263-1.454 16.327M450.02 10.572h-33.061l-43.661 134.904-44.779-134.904H295.45l-45.952 134.534-46.162-134.534h-36.389l-43.311 138.801-30.479-47.247h-.039c2.931-1.292 5.666-2.796 8.178-4.538 4.23-2.909 7.766-6.304 10.606-10.187 2.84-3.877 5.031-8.213 6.552-12.993 1.529-4.786 2.293-9.812 2.293-15.077 0-6.933-1.289-13.339-3.847-19.233-2.575-5.89-6.207-11.026-10.921-15.389-4.711-4.37-10.429-7.799-17.158-10.292-6.723-2.497-14.304-3.742-22.766-3.742H10.744v149.716h33.063v-52.403h13.907l35.103 52.292 27.419-.022-.005.033h10.548l42.924-127.174 45.648 127.174h36.041L300.36 32.753l41.814 127.538h26.332 9.682.033l-.02-.044 15.163-46.742h55.401l15.188 46.786h34.305L450.02 10.572z" class="B"/><g fill="#048fb4"><path d="M378.249 160.341h.027l-.01-.039 15.165-46.739 2.084-7.284 26.097-74.008-4.591-21.641-43.655 134.907m-117.94 14.754l44.97-127.535-4.91-22.178-45.949 134.534" class="B"/><path d="M130.862 159.949l42.914-127.162-6.756-22.549-43.319 138.799m325.178-35.513l-55.533.03 2.172-7.429 51.057.038z" class="B"/></g><path d="M300.548 33.077l-5.161-22.546-2.63 8.382zm121.108-.41l-4.625-22.136-2.628 8.384zm-48.388 112.931l4.926 14.881 1.24-4.322zm-123.706-.492l5.859 15.207 1.104-3.157zm-125.961 4.118l7.098 10.78 1.104-3.157zm50.034-116.258l-6.572-22.634-2.619 8.385zm272.921 73.159l2.271 7.294h-.966l-2.31-7.272zm-353.181-4.008s-12.455 5.903-35.4 5.862c-.001 0 21.465 4.258 35.4-5.862m-49.595-1.38h1.24v7.214h-1.24z" class="B" fill="#065b7d"/></svg>