<svg width="158" height="112" viewBox="0 0 158 112" fill="none" xmlns="http://www.w3.org/2000/svg">
<path d="M41.1438 52.2885C41.1438 59.0114 41.0543 75.8635 19.3616 75.8635C13.8038 75.8635 2.95765 74.3396 1.43371 61.8799H9.32226C10.7563 69.3199 18.0173 69.3199 19.9 69.3199C33.5252 69.3199 33.2564 58.3839 33.2564 52.8261V50.854H33.077V51.2127C31.0154 54.5294 26.8918 57.4875 20.617 57.4875C4.66131 57.4875 0 42.518 0 31.3127C0 18.1357 7.08128 7.91666 19.5413 7.91666C28.057 7.91666 31.6426 13.2052 33.5248 15.8947H33.7042V9.26125H41.1442V52.2885H41.1438ZM20.7956 50.675C25.8157 50.675 33.6143 47.3583 33.6143 34.8983C33.6143 27.279 32.3592 14.9983 20.975 14.9983C8.78383 14.9983 8.15628 26.5619 8.15628 32.5678C8.15665 42.8763 12.1904 50.675 20.7956 50.675Z" fill="#878377"/>
<path d="M82.2918 18.2059H88.7736V23.9851H88.93C90.4136 21.7985 93.9282 17.0348 101.269 17.0348C108.609 17.0348 110.953 21.4864 112.124 23.673C115.56 19.8464 118.294 17.0348 124.619 17.0348C128.992 17.0348 137.27 19.2998 137.27 30.7795V59.0498H130.398V32.654C130.398 27.0312 128.68 23.2045 122.823 23.2045C117.044 23.2045 113.217 28.6712 113.217 34.1376V59.0498H106.345V30.7795C106.345 27.3433 105.017 23.2041 99.9411 23.2041C96.0361 23.2041 89.1637 25.7032 89.1637 36.7928V59.0498H82.2914V18.2059H82.2918Z" fill="#FFDE00"/>
<path d="M14.0478 103.643C14.0478 105.9 14.0179 111.557 6.73542 111.557C4.86979 111.557 1.22838 111.045 0.716949 106.863H3.36508C3.84656 109.36 6.28427 109.36 6.91625 109.36C11.4903 109.36 11.4001 105.689 11.4001 103.823V103.161H11.3398V103.281C10.6475 104.395 9.26337 105.388 7.15699 105.388C1.80046 105.388 0.23584 100.362 0.23584 96.6007C0.23584 92.1771 2.61328 88.7465 6.79607 88.7465C9.65498 88.7465 10.8587 90.5223 11.4907 91.425H11.5502V89.198H14.0478V103.643ZM7.2169 103.101C8.90207 103.101 11.5202 101.988 11.5202 97.8047C11.5202 95.2468 11.099 91.1243 7.27718 91.1243C3.18461 91.1243 2.97383 95.0065 2.97383 97.0226C2.9742 100.483 4.3284 103.101 7.2169 103.101Z" fill="#878377"/>
<path d="M20.4271 104.937H17.7789V89.198H20.2766V91.8162H20.3368C21.39 89.9805 22.7742 88.7465 24.7604 88.7465C25.0913 88.7465 25.2418 88.7768 25.4526 88.8367V91.5751H24.4593C21.9917 91.5751 20.4271 93.501 20.4271 95.7882V104.937Z" fill="#878377"/>
<path d="M27.0474 93.9829C27.1676 90.2213 29.6656 88.7465 33.5473 88.7465C34.8113 88.7465 39.3854 89.1078 39.3854 93.1401V102.198C39.3854 102.86 39.7163 103.131 40.2581 103.131C40.4988 103.131 40.8298 103.071 41.1308 103.01V104.936C40.6793 105.057 40.288 105.237 39.6864 105.237C37.3393 105.237 36.978 104.033 36.8877 102.83C35.8645 103.943 34.2696 105.388 31.2002 105.388C28.3114 105.388 26.2653 103.552 26.2653 100.843C26.2653 99.5195 26.6565 96.4498 31.0497 95.9084L35.413 95.3667C36.045 95.3064 36.7971 95.0656 36.7971 93.5007C36.7971 91.8454 35.5934 90.9428 33.0958 90.9428C30.0864 90.9428 29.6652 92.7784 29.4847 93.9825H27.0474V93.9829ZM36.7372 96.9017C36.316 97.2331 35.6537 97.4738 32.374 97.895C31.08 98.0755 29.0036 98.4667 29.0036 100.453C29.0036 102.168 29.8763 103.191 31.8625 103.191C34.3298 103.191 36.7376 101.596 36.7376 99.4899V96.9017H36.7372Z" fill="#878377"/>
<path d="M52.8054 89.1981H55.7246C53.889 94.3438 52.0832 99.4899 50.0675 104.636C47.5698 111.015 47.2988 111.376 43.8985 111.376C43.5072 111.376 43.2062 111.256 42.785 111.136V108.728C43.116 108.849 43.6577 108.999 44.38 108.999C45.7645 108.999 45.9146 108.608 47.1786 105.358L41.3406 89.1981H44.35L48.5328 102.017H48.5931L52.8054 89.1981Z" fill="#878377"/>
<path d="M61.4749 89.0727H63.9839V91.3096H64.0446C64.6189 90.4635 65.979 88.6197 68.8205 88.6197C71.6621 88.6197 72.5688 90.3426 73.0222 91.1887C74.352 89.7077 75.4104 88.6197 77.8588 88.6197C79.5514 88.6197 82.7557 89.4961 82.7557 93.9396V104.882H80.0957V94.6652C80.0957 92.4889 79.4304 91.0075 77.1636 91.0075C74.9267 91.0075 73.4456 93.1235 73.4456 95.2395V104.882H70.7857V93.9393C70.7857 92.6095 70.2716 91.0071 68.3069 91.0071C66.7955 91.0071 64.1356 91.9745 64.1356 96.2671V104.882H61.4756V89.0727H61.4749Z" fill="#FFDE00"/>
<path d="M89.5894 93.879C89.71 90.1004 92.2191 88.6193 96.1182 88.6193C97.3881 88.6193 101.982 88.9817 101.982 93.0325V102.131C101.982 102.796 102.315 103.068 102.859 103.068C103.101 103.068 103.434 103.007 103.736 102.947V104.882C103.282 105.003 102.889 105.184 102.285 105.184C99.9268 105.184 99.5644 103.974 99.4734 102.766C98.4457 103.884 96.8434 105.335 93.7604 105.335C90.8582 105.335 88.8029 103.491 88.8029 100.77C88.8029 99.44 89.196 96.357 93.6091 95.813L97.9924 95.2687C98.6273 95.2084 99.3828 94.9665 99.3828 93.3949C99.3828 91.7323 98.1736 90.8255 95.6648 90.8255C92.6421 90.8255 92.2191 92.6694 92.0375 93.8786H89.5894V93.879ZM99.3229 96.8111C98.8995 97.1436 98.2349 97.3858 94.9397 97.8084C93.6398 97.99 91.5542 98.3831 91.5542 100.378C91.5542 102.101 92.4309 103.128 94.426 103.128C96.9048 103.128 99.3229 101.526 99.3229 99.4104V96.8111Z" fill="#FFDE00"/>
<path d="M112.776 91.2797V101.557C112.776 102.796 113.834 102.796 114.378 102.796H115.315V104.882C114.348 104.973 113.592 105.094 113.32 105.094C110.69 105.094 110.116 103.612 110.116 101.708V91.28H107.97V89.0731H110.116V84.6599H112.776V89.0731H115.315V91.28H112.776V91.2797Z" fill="#FFDE00"/>
<path d="M123.961 104.882H121.302V89.0727H123.81V91.7023H123.871C124.929 89.8589 126.319 88.6193 128.314 88.6193C128.647 88.6193 128.798 88.6493 129.01 88.7099V91.4605H128.012C125.534 91.4605 123.962 93.3949 123.962 95.6921V104.882H123.961Z" fill="#FFDE00"/>
<path d="M134.542 86.2012V83.1785H137.202V86.2012H134.542ZM137.202 104.882H134.542V89.0727H137.202V104.882Z" fill="#FFDE00"/>
<path d="M157.062 104.882H153.677L149.747 98.9267L145.938 104.882H142.583L148.145 96.7508L142.855 89.0727H146.271L149.929 94.6348L153.586 89.0727H156.851L151.5 96.7508L157.062 104.882Z" fill="#FFDE00"/>
<path d="M67.4837 0H61.4993V77.4074H67.4837V0Z" fill="#FFDE00"/>
<path d="M75.3028 0H61.4993V4.78815H75.3028V0Z" fill="#FFDE00"/>
<path d="M75.3024 72.6292H61.4989V77.4159H75.3024V72.6292Z" fill="#FFDE00"/>
<path d="M157.832 0.0110931H151.851V77.4162H157.832V0.0110931Z" fill="#FFDE00"/>
<path d="M157.831 0.00332642H144.027V4.79148H157.831V0.00332642Z" fill="#FFDE00"/>
<path d="M157.831 72.6292H144.027V77.4159H157.831V72.6292Z" fill="#FFDE00"/>
</svg>
