<svg xmlns="http://www.w3.org/2000/svg" width="424" height="424" fill="none" xmlns:v="https://vecta.io/nano"><path d="M35.269 196.052c1.416-20.826 7.356-108.175 73.131-150.189 75.274-48.081 189.321-11.495 246.389 61.352 34.769 44.385 61.207 118.595 32.393 181.601-48.997 107.139-233.747 129.388-310.684 51.536-47.755-48.323-42.628-123.729-41.229-144.3z" fill="#ecf3fe"/><path d="M359.555 362.668c-.25 0-.5-.014-.751-.042l-165.356-18.49c-1.771-.198-3.363-1.079-4.481-2.48s-1.627-3.148-1.429-4.919l24.341-217.663c.197-1.771 1.079-3.363 2.48-4.482a6.65 6.65 0 0 1 4.919-1.429l165.355 18.491c1.771.198 3.363 1.079 4.482 2.48s1.627 3.148 1.429 4.919l-24.341 217.664c-.198 1.771-1.079 3.363-2.48 4.482-1.202.959-2.66 1.469-4.168 1.469zM218.53 114.734a5.04 5.04 0 0 0-3.164 1.118c-1.065.85-1.734 2.058-1.884 3.4l-24.341 217.664a5.04 5.04 0 0 0 4.487 5.617l165.355 18.491c1.344.151 2.669-.235 3.733-1.086a5.04 5.04 0 0 0 1.884-3.401l24.341-217.663a5.04 5.04 0 0 0-4.487-5.618l-165.355-18.491c-.191-.021-.38-.031-.569-.031z" fill="#444"/><path d="M338.535 368.999l-160.151-45.12a5.91 5.91 0 0 1-4.072-7.266L233.706 105.8a5.91 5.91 0 0 1 7.266-4.072l160.152 45.121a5.91 5.91 0 0 1 4.072 7.266l-59.395 210.812c-.878 3.119-4.147 4.951-7.266 4.072z" fill="#00bce7"/><path d="M348.744 174.918l-77.751-21.904c-2.307-.65-3.662-3.069-3.013-5.375s3.068-3.662 5.375-3.013l77.751 21.906a4.37 4.37 0 0 1 3.014 5.374 4.37 4.37 0 0 1-5.376 3.012zm15.491 30.684l-122.474-34.506a4.37 4.37 0 0 1-3.012-5.374 4.37 4.37 0 0 1 5.374-3.013l122.475 34.505c2.306.65 3.662 3.069 3.012 5.376a4.37 4.37 0 0 1-5.375 3.012zm-5.439 19.309l-122.473-34.505c-2.308-.651-3.663-3.069-3.014-5.376a4.37 4.37 0 0 1 5.375-3.012l122.475 34.506a4.37 4.37 0 0 1 3.012 5.374 4.37 4.37 0 0 1-5.375 3.013zm-5.44 19.308l-122.474-34.505a4.37 4.37 0 0 1-3.012-5.375 4.37 4.37 0 0 1 5.374-3.013l122.475 34.506c2.306.65 3.662 3.069 3.013 5.375s-3.07 3.662-5.376 3.012zm-5.44 19.309l-122.474-34.505c-2.307-.65-3.662-3.069-3.013-5.375a4.37 4.37 0 0 1 5.375-3.013l122.475 34.506c2.306.649 3.661 3.069 3.012 5.375a4.37 4.37 0 0 1-5.375 3.012zm-5.439 19.309L220.002 248.33a4.37 4.37 0 0 1-3.012-5.374c.649-2.306 3.068-3.662 5.375-3.013l122.473 34.507a4.37 4.37 0 0 1 3.014 5.374c-.651 2.307-3.069 3.662-5.375 3.013zm-5.44 19.307l-122.476-34.505a4.37 4.37 0 0 1-3.011-5.375 4.37 4.37 0 0 1 5.374-3.012l122.475 34.505a4.37 4.37 0 0 1 3.012 5.375 4.37 4.37 0 0 1-5.374 3.012zm-5.441 19.309l-122.474-34.504c-2.306-.651-3.662-3.07-3.012-5.376s3.069-3.662 5.375-3.013l122.474 34.506a4.37 4.37 0 0 1 3.013 5.375c-.65 2.307-3.07 3.662-5.376 3.012zm-5.439 19.309l-122.474-34.506a4.37 4.37 0 0 1-3.012-5.374c.65-2.307 3.069-3.662 5.375-3.013l122.475 34.505c2.306.651 3.661 3.07 3.012 5.375a4.37 4.37 0 0 1-5.376 3.013z" fill="#b3cef6"/><path d="M111.966 319.052h-.025c-.244 0-.461-.009-.661-.025l-.089-.01-.03-.004-.561-.077-.04-.006-.151-.027-.6-.141-.17-.051-.037-.011-.47-.159-.013-.005-.213-.083-.484-.218-.239-.121-.492-.281-.212-.14-.063-.043-.31-.219-.242-.19-.337-.29-.045-.041-.139-.127-.478-.502-.063-.077-.014-.017-.371-.477-.121-.175-.009-.013-.284-.45-.026-.044-.085-.147-.331-.667-.499-1.148L18.2 115.748l-.274-.729-.049-.168-.019-.067-.133-.505-.042-.216-.012-.063-.075-.468-.03-.293-.027-.459-.004-.292.017-.457.003-.05.017-.239.061-.45.011-.075.034-.208.094-.401.008-.034a8.01 8.01 0 0 1 .343-1.062l.051-.114c.005-.012.011-.023.017-.035l.283-.599.087-.156.035-.058.304-.496.149-.213.015-.02.335-.432.2-.231.371-.385.019-.018.21-.199.419-.348.06-.048.185-.143.494-.325.063-.04.169-.105c.268-.153.523-.282.783-.395L177.26 37.75a8.06 8.06 0 0 1 .823-.303l.19-.052.074-.018.571-.14.238-.04.076-.012.53-.068.284-.017.04-.002.524-.009.32.013.523.047.017.002.286.04.54.109.068.016.198.048.601.19.046.016.134.046c.338.129.676.288 1.031.485l.044.023.321.185.169.113.062.043.384.271.184.147.03.026.358.308.2.191.328.344.186.213.298.383.037.05.127.175.278.441.037.06.09.151.346.697 86.364 198.468a7.55 7.55 0 0 1 .263.697l.048.156.017.052.136.516.009.039.041.184.096.599.002.021.014.092.042.698-.002.187-.001.063-.017.441-.026.308-.051.368c-.062.406-.154.806-.273 1.189l-.046.134-.018.053-.253.649-.096.216-.333.628-.025.044-.067.118c-.17.273-.339.516-.517.743l-.056.066a8.11 8.11 0 0 1-.533.596l-.15.144-.051.048-.47.415-.25.193-.527.359-.064.042-.179.111c-.295.172-.568.31-.832.426l-154.889 67.401c-.207.09-.432.174-.689.26l-.021.007-.126.041-.675.179-.088.017-.036.007-.626.1-.025.003-.085.012-.673.039h-.149zm68.521-280.35l-.322.009-.041.002-.218.013-.424.055-.089.014-.162.027-.455.112-.113.029-.099.026c-.241.075-.456.155-.66.243L23.015 106.633c-.206.089-.412.193-.628.317l-.089.055-.095.061-.396.259-.123.095-.071.056-.335.278-.164.156-.018.017-.296.307-.16.186-.267.346-.015.02-.116.165-.243.396-.043.076-.056.097-.225.477-.038.085-.017.035c-.105.26-.195.538-.273.852l-.009.036-.074.311-.021.133-.014.094-.05.36-.013.174-.003.056-.014.363.003.232.021.367.024.234.06.373.013.071.03.154.107.401.027.098.026.091.22.585 86.364 198.467c.071.164.158.339.266.535l.058.1.03.05.227.362.01.015.093.136.297.381.049.06.014.018.379.396.092.086.054.048.268.232.194.153.247.174.071.048.15.101.395.224.191.096.386.174.172.066.386.132.039.012.128.038.481.113c.035.008.069.013.103.018l.047.008.451.061.064.008.032.004c.154.014.327.02.525.02l.139-.001.537-.033.086-.011.5-.08.101-.02.54-.143.094-.03.022-.008.554-.208 154.889-67.401a6.41 6.41 0 0 0 .665-.341l.114-.071.079-.052.424-.288.196-.154.378-.33.061-.059.098-.093a6.18 6.18 0 0 0 .433-.487l.047-.054a6.03 6.03 0 0 0 .403-.582c.01-.015.019-.033.028-.051l.045-.079.268-.502.077-.173.202-.519.022-.065.03-.086c.095-.305.168-.626.218-.952l.04-.294.022-.246.014-.353.001-.075.001-.123-.033-.555-.002-.018a.6.6 0 0 1-.011-.074l-.077-.48-.031-.135-.009-.042-.109-.411-.018-.059-.034-.11-.21-.558-86.365-198.466a6.75 6.75 0 0 0-.278-.56l-.049-.082-.053-.086-.222-.354-.09-.123-.043-.058-.236-.303-.15-.171-.26-.273-.162-.155-.285-.246-.035-.029-.136-.11-.305-.214-.08-.054-.105-.071-.243-.138-.048-.026c-.29-.161-.561-.288-.828-.39-.018-.008-.036-.013-.053-.017l-.091-.031-.481-.154-.13-.031-.082-.018-.434-.088-.224-.031-.017-.002-.418-.039-.257-.01h-.093z" fill="#444"/><path opacity=".2" d="M260.125 271.874l.117-.179.316-.539.083-.159a7.3 7.3 0 0 0 .412-1.018l.097-.322.066-.269.078-.39.037-.222.061-.622.002-.104-.001-.548-.012-.202-.05-.478-.026-.195-.134-.658-.314-1.207-53.211-205.754-.67-2.59c-.059-.229-.13-.452-.209-.67l-.083-.204-.185-.433-.115-.224-.209-.381-.135-.215-.243-.352-.151-.199-.275-.327-.164-.181-.303-.294-.183-.17-.294-.237a7.22 7.22 0 0 0-.85-.578l-.152-.079-.506-.255-.228-.093-.466-.174-.263-.08-.459-.117-.282-.055-.466-.066-.289-.028-.483-.015c-.095 0-.19-.002-.285.001l-.527.044-.247.026a7.15 7.15 0 0 0-.775.154L34.61 93.513a7.66 7.66 0 0 0-.753.24l-.226.097-.484.219-.244.135-.421.25-.233.161-.384.29-.21.178-.358.337-.179.184-.339.397-.139.174-.336.493-.08.122a7.33 7.33 0 0 0-.456.9l-.151.369-.08.248-.118.389-.06.256-.079.4-.037.261-.041.412-.015.262.001.429.008.255.048.466.027.221.141.686.672 2.595 53.209 205.743.313 1.213.2.64.071.185.189.44.088.184.264.479.052.091.355.514.14.176.257.304.188.202.243.236.223.207.394.315.198.143.395.259.194.112.392.207.177.087.514.21.163.055.487.148.105.029.583.115.156.024.602.059.101.002.565-.001.119-.004.625-.063.137-.021.649-.134 163.538-42.294a7.24 7.24 0 0 0 .799-.26l.237-.101.521-.246.246-.137.478-.301.205-.142.568-.464c.016-.015.033-.027.049-.041a7.81 7.81 0 0 0 .564-.587l.104-.131.383-.514z" fill="#3a7ec1"/><path d="M207.898 50.335l54.194 209.55a7.19 7.19 0 0 1-.212 4.298c-.79 2.161-2.594 3.91-4.988 4.53L93.354 311.007c-2.395.619-4.82-.037-6.559-1.544a7.18 7.18 0 0 1-2.269-3.656L30.333 96.257c-.44-1.701-.239-3.415.455-4.888.886-1.886 2.574-3.377 4.745-3.939L199.07 45.136c2.173-.562 4.371-.075 6.055 1.142a7.18 7.18 0 0 1 2.773 4.058z" fill="#e5a755"/><path d="M207.898 50.335l.67 2.59-8.077 25.146-74.875 20.358-75.363 18.496-19.249-18.073-.672-2.595c-1.003-3.877 1.328-7.825 5.2-8.827L199.07 45.135c3.873-1.001 7.825 1.323 8.828 5.2zm53.881 208.343l.313 1.207a7.25 7.25 0 0 1-5.2 8.828L93.354 311.007a7.25 7.25 0 0 1-8.828-5.2l-.313-1.213 5.608-16.441a4.53 4.53 0 0 1 3.093-2.858l151.892-39.282c1.411-.365 3.018.025 4.095.999l12.878 11.666z" fill="#d89444"/><path d="M261.88 264.184c-.79 2.161-2.594 3.91-4.988 4.53L93.354 311.008c-2.395.619-4.821-.037-6.559-1.544l3.414-21.202a3.67 3.67 0 0 1 2.705-2.971l151.891-39.282c1.412-.365 2.906.141 3.811 1.286l13.264 16.889zM205.125 46.278l-4.521 31.348c-.125.889-.775 1.61-1.64 1.834L52.266 117.4a2.22 2.22 0 0 1-2.328-.809L30.787 91.369c.886-1.886 2.574-3.377 4.745-3.939L199.07 45.136c2.173-.562 4.371-.075 6.055 1.142z" fill="#f9c067"/><path d="M134.547 146.72c-3.057 0-5.853-2.057-6.654-5.152l-14.432-55.803a6.82 6.82 0 0 1 4.932-8.372l3.339-.864c3.668-.949 7.425 1.264 8.374 4.931l14.431 55.803a6.82 6.82 0 0 1-.738 5.204c-.934 1.585-2.423 2.71-4.193 3.168l-3.339.864a6.86 6.86 0 0 1-1.72.22zm-11.095-68.447a4.95 4.95 0 0 0-1.228.157l-3.339.864a4.87 4.87 0 0 0-2.993 2.264c-.668 1.133-.856 2.454-.529 3.716l14.431 55.804c.678 2.619 3.36 4.2 5.981 3.522l3.339-.863c1.263-.327 2.326-1.131 2.994-2.264s.855-2.454.529-3.716l-14.432-55.803c-.571-2.209-2.57-3.679-4.753-3.679z" fill="#444"/><path d="M122.136 94.579c5.299 0 9.594-4.296 9.594-9.595s-4.295-9.595-9.594-9.595a9.6 9.6 0 0 0-9.595 9.595 9.6 9.6 0 0 0 9.595 9.595zm14.091 54.488a9.6 9.6 0 0 0 9.596-9.595 9.6 9.6 0 0 0-9.596-9.596 9.6 9.6 0 0 0-9.595 9.596 9.6 9.6 0 0 0 9.595 9.595z" fill="#fff"/><path opacity=".25" d="M327.944 108.811L193.599 94.807a9.58 9.58 0 0 0-10.521 8.535l-21.954 210.635a9.58 9.58 0 0 0 8.534 10.521l163.365 17.028a9.58 9.58 0 0 0 10.52-8.535l18.929-181.616-34.528-42.564z" fill="#3a7ec1"/><path d="M322.69 104.762L188.345 90.76a9.58 9.58 0 0 0-10.522 8.534L155.87 309.93a9.58 9.58 0 0 0 8.534 10.52l163.366 17.028a9.58 9.58 0 0 0 10.52-8.535l18.929-181.616-34.529-42.565z" fill="#fff"/><path d="M319.665 133.782a9.58 9.58 0 0 0 8.536 10.52l29.019 3.024-34.529-42.564-3.026 29.02z" fill="#ededed"/><path d="M326.699 144.024l30.011 8.187.509-4.885-30.52-3.302z" fill="#cecece"/><path d="M306.26 150.036l-82.156-8.563a4.06 4.06 0 0 1-3.607-4.447 4.06 4.06 0 0 1 4.447-3.607l82.156 8.563a4.06 4.06 0 0 1 3.607 4.447c-.23 2.214-2.232 3.838-4.447 3.607z" fill="#065b7d"/><path d="M330.242 180.17l-135.818-14.156a4.06 4.06 0 0 1-3.607-4.447c.231-2.215 2.232-3.838 4.447-3.607l135.817 14.157a4.06 4.06 0 0 1 3.608 4.447c-.231 2.214-2.232 3.837-4.447 3.606zm-2.137 20.504l-135.818-14.157c-2.215-.23-3.839-2.232-3.608-4.447s2.232-3.839 4.447-3.608l135.818 14.156c2.216.231 3.839 2.232 3.608 4.448s-2.232 3.839-4.447 3.608zm-2.138 20.502L190.15 207.02c-2.216-.231-3.839-2.232-3.608-4.447a4.06 4.06 0 0 1 4.448-3.607l135.819 14.156a4.06 4.06 0 0 1 3.607 4.447c-.232 2.214-2.234 3.838-4.449 3.607zm-2.137 20.504l-135.818-14.156c-2.215-.231-3.838-2.233-3.607-4.447a4.06 4.06 0 0 1 4.448-3.608l135.817 14.156a4.06 4.06 0 0 1 3.607 4.448 4.06 4.06 0 0 1-4.447 3.607zm-2.136 20.503l-135.818-14.156c-2.215-.231-3.838-2.232-3.607-4.447a4.06 4.06 0 0 1 4.447-3.608l135.818 14.156c2.215.231 3.839 2.233 3.608 4.448s-2.232 3.838-4.448 3.607zm-2.136 20.502L183.739 268.53c-2.216-.231-3.839-2.232-3.608-4.448a4.06 4.06 0 0 1 4.448-3.607l135.818 14.156a4.06 4.06 0 0 1 3.608 4.447 4.06 4.06 0 0 1-4.447 3.607zm-17.47 39.818c-7.964-1.264-13.416-8.773-12.152-16.738s8.772-13.417 16.737-12.153 13.417 8.773 12.153 16.738-8.772 13.417-16.738 12.153zm4.09-25.768a11.48 11.48 0 0 0-13.118 9.525 11.48 11.48 0 0 0 9.525 13.119 11.48 11.48 0 0 0 13.119-9.525 11.48 11.48 0 0 0-9.526-13.119z" fill="#e4ecf9"/><path d="M325.685 297.756l-.101.016c-1.217.195-2.364.489-3.47.835l-1.649.536-1.581.628c-2.097.855-4.097 1.842-5.999 2.966-1.958 1.046-3.75 2.321-5.534 3.606l-2.899 2.302-1.666-1.435c-.768-.674-1.639-1.273-2.486-1.89-.882-.592-1.78-1.171-2.785-1.674l-.091-.046c-.066-.033-.148-.03-.214.014a.21.21 0 0 0-.055.294l6.892 9.776a.39.39 0 0 0 .544.086l10.682-7.745 5.308-3.917 5.264-3.976a.21.21 0 0 0-.16-.376zm-64.287-238.64c7.849 0 14.212-6.363 14.212-14.212s-6.363-14.212-14.212-14.212-14.212 6.363-14.212 14.212 6.363 14.212 14.212 14.212zm35.72 344.082a8.2 8.2 0 0 0 8.196-8.197 8.2 8.2 0 0 0-8.196-8.197 8.2 8.2 0 0 0-8.197 8.197 8.2 8.2 0 0 0 8.197 8.197z" fill="#065b7d"/></svg>