<svg width="111" height="99" viewBox="0 0 111 99" fill="none" xmlns="http://www.w3.org/2000/svg">
<path d="M56.4486 0.0082646C25.8022 -0.51532 0.531855 23.9047 0.00827007 54.5512C-0.289126 71.9279 7.45574 87.5454 19.7872 97.9312C20.5935 97.2275 21.4585 96.5825 22.4198 96.0589L38.9797 87.026C41.1516 85.8406 42.5045 83.564 42.5045 81.0885V74.3029C42.5045 74.3029 37.6436 68.489 35.7901 60.4111C34.2528 59.4163 33.2224 57.6968 33.2224 55.7386V48.3121C33.2224 46.6785 33.9491 45.2188 35.078 44.1967V33.4612C35.078 33.4612 32.8726 16.7546 55.4978 16.7546C78.1229 16.7546 75.9176 33.4612 75.9176 33.4612V44.1967C77.0486 45.2188 77.7732 46.6785 77.7732 48.3121V55.7386C77.7732 58.2351 76.0977 60.3357 73.8233 61.0373C72.5562 64.9768 70.7278 68.7319 68.311 72.1457C67.7015 73.0065 67.1319 73.7353 66.6334 74.3029V81.2603C66.6334 83.8216 68.0806 86.1652 70.3718 87.3087L88.1046 96.1741C89.1685 96.706 90.1298 97.3783 91.0157 98.126C102.974 88.1527 110.7 73.241 110.987 56.4486C111.515 25.8021 87.0972 0.53185 56.4486 0.0082646Z" fill="#556080"/>
</svg>
